<svg xmlns="http://www.w3.org/2000/svg" data-name="Layer 1" viewBox="0 0 100 125" x="0px" y="0px"><title>17</title><g data-name="Group"><path data-name="Compound Path" d="M67.2,12.9H32.8a10,10,0,0,0-10,10v15H18.4a9,9,0,0,0-9,9V68.9a10,10,0,0,0,10,10h2.5v5.2a3,3,0,0,0,6,0V78.9H72.1v5.2a3,3,0,0,0,6,0V78.9h2.5a10,10,0,0,0,10-10V46.8a9,9,0,0,0-9-9H77.2v-15A10,10,0,0,0,67.2,12.9Zm-38.5,10a4,4,0,0,1,4-4H67.2a4,4,0,0,1,4,4V40.8h0V58H28.8Zm52.8,21a3,3,0,0,1,3,3V68.9a4,4,0,0,1-4,4H19.4a4,4,0,0,1-4-4V46.8a3,3,0,0,1,3-3h4.4V61a3,3,0,0,0,3,3H74.2a3,3,0,0,0,3-3V43.8Z"/></g><text x="0" y="115" fill="#000000" font-size="5px" font-weight="bold" font-family="'Helvetica Neue', Helvetica, Arial-Unicode, Arial, Sans-serif">Created by Naveen</text><text x="0" y="120" fill="#000000" font-size="5px" font-weight="bold" font-family="'Helvetica Neue', Helvetica, Arial-Unicode, Arial, Sans-serif">from the Noun Project</text></svg>